    <svg xmlns="http://www.w3.org/2000/svg" version="1.1" xmlns:xlink="http://www.w3.org/1999/xlink" xmlns:svgjs="http://svgjs.dev/svgjs" viewBox="0 0 800 800" opacity="0.1"><defs><filter id="bbburst-blur-1" x="-100%" y="-100%" width="400%" height="400%"><feGaussianBlur in="SourceGraphic" stdDeviation="1"></feGaussianBlur></filter><filter id="bbburst-blur-2" x="-100%" y="-100%" width="400%" height="400%"><feGaussianBlur in="SourceGraphic" stdDeviation="2"></feGaussianBlur></filter><filter id="bbburst-blur-3" x="-100%" y="-100%" width="400%" height="400%"><feGaussianBlur in="SourceGraphic" stdDeviation="4"></feGaussianBlur></filter><filter id="bbburst-blur-4" x="-100%" y="-100%" width="400%" height="400%"><feGaussianBlur in="SourceGraphic" stdDeviation="12"></feGaussianBlur></filter><symbol id="bbburst-shape-8" viewBox="0 0 87 168"><path d="m12 12 31.2546 18.0749c16.4102 9.4902 20.014 31.6325 7.4603 45.8369L36.3296 92.1884c-12.5684 14.2206-8.9394 36.3916 7.5068 45.8636L75 156" stroke-width="14" stroke-linecap="round" stroke-linejoin="round"></path></symbol><symbol id="bbburst-shape-13" viewBox="0 0 159 159"><path stroke-width="22" d="M11 11h137v137H11z"></path></symbol><symbol id="bbburst-shape-14" viewBox="0 0 185 109"><path d="M168 16.5C168 58.1975 134.197 92 92.5 92 50.8025 92 17 58.1975 17 16.5" stroke-width="33" stroke-linecap="round"></path></symbol></defs><use xlink:href="#bbburst-shape-14" width="47.656050181558" opacity="0.5772832152223464" transform="matrix(0.9103235669667767,0.4138973344017624,-0.4138973344017624,0.9103235669667767,660.675341819813,-60.07546264080952)" fill="none" stroke="hsl(340, 68%, 53%)" filter="url(#bbburst-blur-1)"></use><use xlink:href="#bbburst-shape-13" width="24.952643035719305" opacity="0.8313133070328471" transform="matrix(0.9772591707555953,0.21204837460845133,-0.21204837460845133,0.9772591707555953,710.2404748470088,-347.8776884298165)" fill="none" stroke="hsl(340, 68%, 53%)"></use><use xlink:href="#bbburst-shape-13" width="76.76369251424227" opacity="0.32770306780039316" transform="matrix(0.8371720234499973,-0.5469396704871912,0.5469396704871912,0.8371720234499973,-83.93289910098386,-87.46348769699776)" fill="none" stroke="hsl(340, 68%, 53%)" filter="url(#bbburst-blur-2)"></use><use xlink:href="#bbburst-shape-13" width="59.69220190194989" opacity="0.2571843437566944" transform="matrix(0.9932451753294618,-0.11603457107580821,0.11603457107580821,0.9932451753294618,-10.456085386066235,-282.32244967599587)" fill="none" stroke="hsl(340, 68%, 53%)" filter="url(#bbburst-blur-2)"></use><use xlink:href="#bbburst-shape-13" width="44.02562234312023" opacity="0.5212430608402314" transform="matrix(0.930271336347648,0.36687224039161237,-0.36687224039161237,0.930271336347648,702.6651624549249,43.1459803487798)" fill="none" stroke="hsl(340, 68%, 53%)" filter="url(#bbburst-blur-1)"></use><use xlink:href="#bbburst-shape-14" width="35.59516805078495" opacity="0.514660337466387" transform="matrix(0.9970329329687365,0.07697616888205719,-0.07697616888205719,0.9970329329687365,734.8293434693976,78.86100254171413)" fill="none" stroke="hsl(340, 68%, 53%)" filter="url(#bbburst-blur-1)"></use><use xlink:href="#bbburst-shape-13" width="27.497154131345233" opacity="0.6914972830665489" transform="matrix(0.9650109641560762,0.26220953273777076,-0.26220953273777076,0.9650109641560762,844.9199920323094,-84.66123249195329)" fill="none" stroke="hsl(346, 100%, 77%)"></use><use xlink:href="#bbburst-shape-14" width="62.07442010161656" opacity="0.39336136500075547" transform="matrix(0.9364373585244565,0.35083482375576475,-0.35083482375576475,0.9364373585244565,685.9178261045319,177.85558048690643)" fill="none" stroke="hsl(340, 68%, 53%)" filter="url(#bbburst-blur-2)"></use><use xlink:href="#bbburst-shape-13" width="44.26221538542793" opacity="0.5729272937994756" transform="matrix(0.9153120284791728,-0.402745441341478,0.402745441341478,0.9153120284791728,195.63020578701986,-298.4782052822174)" fill="none" stroke="hsl(346, 100%, 77%)" filter="url(#bbburst-blur-1)"></use><use xlink:href="#bbburst-shape-14" width="19.926818235851634" opacity="0.8591585639840345" transform="matrix(0.8904085838978857,0.4551621180645,-0.4551621180645,0.8904085838978857,944.2004538990986,-222.84686834021642)" fill="none" stroke="hsl(346, 100%, 77%)"></use><use xlink:href="#bbburst-shape-13" width="16.851209782093854" opacity="0.9202220869397557" transform="matrix(0.9614834637711009,-0.27486278193805347,0.27486278193805347,0.9614834637711009,604.2211827994081,-364.32886163762845)" fill="none" stroke="hsl(346, 100%, 77%)"></use><use xlink:href="#bbburst-shape-14" width="70.52057510434719" opacity="0.28577440317299796" transform="matrix(0.938634630607552,-0.3449130763311596,0.3449130763311596,0.938634630607552,241.73797292938985,236.93791662845064)" fill="none" stroke="hsl(340, 68%, 53%)" filter="url(#bbburst-blur-2)"></use><use xlink:href="#bbburst-shape-8" width="23.06959282857839" opacity="0.8680783754004268" transform="matrix(0.8436585948996369,-0.5368800380457168,0.5368800380457168,0.8436585948996369,487.582512239317,-232.92980094219615)" fill="none" stroke="hsl(340, 68%, 53%)"></use><use xlink:href="#bbburst-shape-13" width="49.842446341308744" opacity="0.6559394897213928" transform="matrix(0.854327679829841,-0.5197347549246255,0.5197347549246255,0.854327679829841,411.7641713730052,-23.687857145027124)" fill="none" stroke="hsl(346, 100%, 77%)"></use><use xlink:href="#bbburst-shape-13" width="50.12537858890853" opacity="0.22278192035598277" transform="matrix(0.8133993461582424,-0.581705684749035,0.581705684749035,0.8133993461582424,271.96469059233095,416.1726504084441)" fill="none" stroke="hsl(340, 68%, 53%)" filter="url(#bbburst-blur-3)"></use><use xlink:href="#bbburst-shape-13" width="24.574580275807627" opacity="0.8143465107696497" transform="matrix(0.8933016210977855,-0.44945768849143997,0.44945768849143997,0.8933016210977855,473.2605554575951,-225.39933599345085)" fill="none" stroke="hsl(346, 100%, 77%)"></use><use xlink:href="#bbburst-shape-13" width="44.690088650361986" opacity="0.42146786201120623" transform="matrix(0.7338934594082179,0.6792645951599704,-0.6792645951599704,0.7338934594082179,480.5605063189863,-242.66017582687238)" fill="none" stroke="hsl(340, 68%, 53%)" filter="url(#bbburst-blur-2)"></use><use xlink:href="#bbburst-shape-14" width="22.432797326271032" opacity="0.8154742109750062" transform="matrix(0.9615175613189636,-0.2747434790404187,0.2747434790404187,0.9615175613189636,624.2176235875187,-205.39168289233876)" fill="none" stroke="hsl(340, 68%, 53%)"></use><use xlink:href="#bbburst-shape-14" width="65.09706244947682" opacity="0.2651361680118105" transform="matrix(0.8907347649375867,-0.45452346312548275,0.45452346312548275,0.8907347649375867,498.5721334240936,387.82778994403486)" fill="none" stroke="hsl(340, 68%, 53%)" filter="url(#bbburst-blur-2)"></use><use xlink:href="#bbburst-shape-13" width="44.81931372737901" opacity="0.6292326712830885" transform="matrix(0.906782857909024,-0.42159797034893653,0.42159797034893653,0.906782857909024,280.4064395168189,-185.48632691277263)" fill="none" stroke="hsl(340, 68%, 53%)" filter="url(#bbburst-blur-1)"></use><use xlink:href="#bbburst-shape-13" width="22.24674111921199" opacity="0.7590318031105148" transform="matrix(0.8768823930034714,0.48070497068420837,-0.48070497068420837,0.8768823930034714,933.6236443217124,-120.14657019559499)" fill="none" stroke="hsl(346, 100%, 77%)"></use><use xlink:href="#bbburst-shape-13" width="53.62452220228768" opacity="0.5034137971637637" transform="matrix(0.9147391486225773,0.4040449108419043,-0.4040449108419043,0.9147391486225773,536.917490614971,-82.69088551224945)" fill="none" stroke="hsl(340, 68%, 53%)" filter="url(#bbburst-blur-1)"></use><use xlink:href="#bbburst-shape-8" width="16.52958993906402" opacity="0.9014417659329653" transform="matrix(0.9821494299047023,0.18810235867173036,-0.18810235867173036,0.9821494299047023,840.030938312204,-299.6530731058957)" fill="none" stroke="hsl(346, 100%, 77%)"></use><use xlink:href="#bbburst-shape-14" width="69.65156969880356" opacity="0.40499667840318954" transform="matrix(0.7622857159545176,-0.6472406718151359,0.6472406718151359,0.7622857159545176,121.94169344524795,164.72689804081426)" fill="none" stroke="hsl(346, 100%, 77%)" filter="url(#bbburst-blur-2)"></use><use xlink:href="#bbburst-shape-8" width="42.626352866412766" opacity="0.6847574807524358" transform="matrix(0.988101003870209,-0.15380639177448083,0.15380639177448083,0.988101003870209,406.7940134907136,-338.1972677920046)" fill="none" stroke="hsl(340, 68%, 53%)"></use><use xlink:href="#bbburst-shape-8" width="12.900392320574031" opacity="0.9375521261354208" transform="matrix(0.9701315402435486,0.24257946043447273,-0.24257946043447273,0.9701315402435486,871.1717580930149,-330.3258222486679)" fill="none" stroke="hsl(340, 68%, 53%)"></use><use xlink:href="#bbburst-shape-13" width="91.85785342186787" opacity="0.17136524417886634" transform="matrix(0.9137203441798237,0.4063436139917847,-0.4063436139917847,0.9137203441798237,193.83161719705305,13.95079144814224)" fill="none" stroke="hsl(340, 68%, 53%)" filter="url(#bbburst-blur-3)"></use><use xlink:href="#bbburst-shape-14" width="10.127828154696097" opacity="0.9651364887192848" transform="matrix(0.9242509888996079,0.3817854233965683,-0.3817854233965683,0.9242509888996079,933.9674729757768,-339.71890073368206)" fill="none" stroke="hsl(346, 100%, 77%)"></use><use xlink:href="#bbburst-shape-13" width="15.631972352447434" opacity="0.9138095557390735" transform="matrix(0.707836522509125,0.7063762859851603,-0.7063762859851603,0.707836522509125,1013.7849113144912,-230.08636172354886)" fill="none" stroke="hsl(340, 68%, 53%)"></use><use xlink:href="#bbburst-shape-8" width="13.518229497836376" opacity="0.9520184533487253" transform="matrix(0.9551384391114826,0.29615969025456634,-0.29615969025456634,0.9551384391114826,868.5645987876693,-363.68806108713306)" fill="none" stroke="hsl(346, 100%, 77%)"></use><use xlink:href="#bbburst-shape-13" width="8.157910650697191" opacity="0.9823066481174871" transform="matrix(0.8028893299852974,-0.5961281102210835,0.5961281102210835,0.8028893299852974,543.1212501026712,-309.5887950651338)" fill="none" stroke="hsl(340, 68%, 53%)"></use><use xlink:href="#bbburst-shape-13" width="22.066640844806706" opacity="0.880090996945524" transform="matrix(0.9174479707346845,0.3978557791396392,-0.3978557791396392,0.9174479707346845,833.9115800993927,-337.7792824590305)" fill="none" stroke="hsl(346, 100%, 77%)"></use><use xlink:href="#bbburst-shape-13" width="66.56575558032033" opacity="0.2115730477541763" transform="matrix(0.9995750015900595,-0.029151607095192635,0.029151607095192635,0.9995750015900595,174.00502227713412,134.03784845324464)" fill="none" stroke="hsl(340, 68%, 53%)" filter="url(#bbburst-blur-3)"></use><use xlink:href="#bbburst-shape-8" width="40.78844066589821" opacity="0.6857507004525223" transform="matrix(0.8597027835392199,-0.5107946005733784,0.5107946005733784,0.8597027835392199,346.8803442049002,-120.7026513780381)" fill="none" stroke="hsl(340, 68%, 53%)"></use><use xlink:href="#bbburst-shape-13" width="45.18316326391203" opacity="0.49499244225734196" transform="matrix(0.9468338535799002,0.3217229455836745,-0.3217229455836745,0.9468338535799002,436.62124499479444,-202.98434593386125)" fill="none" stroke="hsl(340, 68%, 53%)" filter="url(#bbburst-blur-1)"></use><use xlink:href="#bbburst-shape-14" width="35.0236192312223" opacity="0.6094441989902603" transform="matrix(0.9967386639334467,-0.08069718594949667,0.08069718594949667,0.9967386639334467,679.4497905164902,-13.154029188129357)" fill="none" stroke="hsl(340, 68%, 53%)" filter="url(#bbburst-blur-1)"></use><use xlink:href="#bbburst-shape-8" width="78.13401123923445" opacity="0.1200511279277533" transform="matrix(0.804779680685406,0.5935736395392706,-0.5935736395392706,0.804779680685406,502.23780966952984,376.386773312932)" fill="none" stroke="hsl(340, 68%, 53%)" filter="url(#bbburst-blur-3)"></use><use xlink:href="#bbburst-shape-13" width="59.07213155450785" opacity="0.3505219906020596" transform="matrix(0.9749655081831581,0.22235615092269503,-0.22235615092269503,0.9749655081831581,317.6952265498521,-39.38566023306606)" fill="none" stroke="hsl(340, 68%, 53%)" filter="url(#bbburst-blur-2)"></use><use xlink:href="#bbburst-shape-13" width="38.892620143220675" opacity="0.7537471765875123" transform="matrix(0.9792988498658901,-0.20241976843022233,0.20241976843022233,0.9792988498658901,563.0011198788391,-183.1495232354766)" fill="none" stroke="hsl(340, 68%, 53%)"></use><use xlink:href="#bbburst-shape-14" width="48.107749331545776" opacity="0.3979100257343071" transform="matrix(0.9998623768652226,0.01658997677598214,-0.01658997677598214,0.9998623768652226,708.3562300561363,197.2178838568497)" fill="none" stroke="hsl(340, 68%, 53%)" filter="url(#bbburst-blur-2)"></use><use xlink:href="#bbburst-shape-13" width="31.125357778200748" opacity="0.769273634305389" transform="matrix(0.8939736442797473,0.44811954134269555,-0.44811954134269555,0.8939736442797473,737.4349220982785,-328.5615810480629)" fill="none" stroke="hsl(340, 68%, 53%)"></use><use xlink:href="#bbburst-shape-8" width="75.18407919739191" opacity="0.01743404727211284" transform="matrix(0.9816821040075349,-0.19052623617585984,0.19052623617585984,0.9816821040075349,-24.05123497545526,292.7253808087556)" fill="none" stroke="hsl(346, 100%, 77%)" filter="url(#bbburst-blur-3)"></use><use xlink:href="#bbburst-shape-8" width="37.184976762826906" opacity="0.7499478695982196" transform="matrix(0.999757820316848,-0.0220068333775005,0.0220068333775005,0.999757820316848,552.8544433982819,-280.1881218288266)" fill="none" stroke="hsl(340, 68%, 53%)"></use></svg>